<mxfile host="app.diagrams.net" modified="2023-03-31T08:49:08.165Z" agent="Mozilla/5.0 (Windows NT 10.0; Win64; x64) AppleWebKit/537.36 (KHTML, like Gecko) Chrome/111.0.0.0 Safari/537.36" etag="iXDMeuLp_dng_CyQEf9F" version="21.1.2" type="device">
  <diagram id="7NlyBKI5GkNs8vtIFSGc" name="Page-1">
    <mxGraphModel dx="2261" dy="756" grid="1" gridSize="10" guides="1" tooltips="1" connect="1" arrows="1" fold="1" page="1" pageScale="1" pageWidth="827" pageHeight="1169" math="0" shadow="0">
      <root>
        <mxCell id="0" />
        <mxCell id="1" parent="0" />
        <mxCell id="WVtaq3fYPAHRfvgPRUCA-3" value="" style="edgeStyle=orthogonalEdgeStyle;rounded=0;orthogonalLoop=1;jettySize=auto;html=1;entryX=0.5;entryY=0;entryDx=0;entryDy=0;" parent="1" source="WVtaq3fYPAHRfvgPRUCA-1" target="WVtaq3fYPAHRfvgPRUCA-2" edge="1">
          <mxGeometry relative="1" as="geometry" />
        </mxCell>
        <mxCell id="WVtaq3fYPAHRfvgPRUCA-1" value="Start" style="ellipse;whiteSpace=wrap;html=1;fillColor=#dae8fc;strokeColor=#6c8ebf;" parent="1" vertex="1">
          <mxGeometry x="370" y="60" width="96" height="50" as="geometry" />
        </mxCell>
        <mxCell id="WVtaq3fYPAHRfvgPRUCA-16" value="&lt;b&gt;Yes&lt;/b&gt;" style="edgeStyle=orthogonalEdgeStyle;rounded=0;orthogonalLoop=1;jettySize=auto;html=1;entryX=0.5;entryY=0;entryDx=0;entryDy=0;" parent="1" source="WVtaq3fYPAHRfvgPRUCA-2" target="WVtaq3fYPAHRfvgPRUCA-13" edge="1">
          <mxGeometry relative="1" as="geometry" />
        </mxCell>
        <mxCell id="hfWW1xW6RFbz01fehzcv-2" value="&lt;b&gt;No&lt;/b&gt;" style="edgeStyle=orthogonalEdgeStyle;rounded=0;orthogonalLoop=1;jettySize=auto;html=1;entryX=0;entryY=0.5;entryDx=0;entryDy=0;" parent="1" source="WVtaq3fYPAHRfvgPRUCA-2" target="WVtaq3fYPAHRfvgPRUCA-6" edge="1">
          <mxGeometry relative="1" as="geometry" />
        </mxCell>
        <mxCell id="WVtaq3fYPAHRfvgPRUCA-2" value="Is the current board valid for the rules of Sudoku?" style="rhombus;whiteSpace=wrap;html=1;fillColor=#fff2cc;strokeColor=#d6b656;" parent="1" vertex="1">
          <mxGeometry x="362" y="160" width="112" height="110" as="geometry" />
        </mxCell>
        <mxCell id="t9-L5kfbOhESfFCxQeHO-42" style="edgeStyle=orthogonalEdgeStyle;rounded=0;orthogonalLoop=1;jettySize=auto;html=1;" parent="1" source="WVtaq3fYPAHRfvgPRUCA-6" target="t9-L5kfbOhESfFCxQeHO-41" edge="1">
          <mxGeometry relative="1" as="geometry" />
        </mxCell>
        <mxCell id="WVtaq3fYPAHRfvgPRUCA-6" value="Error as the board is unsolvable" style="rounded=1;whiteSpace=wrap;html=1;fillColor=#f8cecc;strokeColor=#b85450;" parent="1" vertex="1">
          <mxGeometry x="575" y="185" width="120" height="60" as="geometry" />
        </mxCell>
        <mxCell id="WVtaq3fYPAHRfvgPRUCA-18" value="&lt;b&gt;No&lt;/b&gt;" style="edgeStyle=orthogonalEdgeStyle;rounded=0;orthogonalLoop=1;jettySize=auto;html=1;entryX=0;entryY=0.5;entryDx=0;entryDy=0;" parent="1" source="WVtaq3fYPAHRfvgPRUCA-13" target="WVtaq3fYPAHRfvgPRUCA-17" edge="1">
          <mxGeometry relative="1" as="geometry" />
        </mxCell>
        <mxCell id="t9-L5kfbOhESfFCxQeHO-2" value="&lt;b&gt;Yes&lt;/b&gt;" style="edgeStyle=orthogonalEdgeStyle;rounded=0;orthogonalLoop=1;jettySize=auto;html=1;entryX=1;entryY=0.5;entryDx=0;entryDy=0;" parent="1" source="WVtaq3fYPAHRfvgPRUCA-13" target="t9-L5kfbOhESfFCxQeHO-1" edge="1">
          <mxGeometry relative="1" as="geometry" />
        </mxCell>
        <mxCell id="WVtaq3fYPAHRfvgPRUCA-13" value="Can an empty square be found?" style="rhombus;whiteSpace=wrap;html=1;fillColor=#d5e8d4;strokeColor=#82b366;" parent="1" vertex="1">
          <mxGeometry x="368" y="320" width="100" height="95" as="geometry" />
        </mxCell>
        <mxCell id="hfWW1xW6RFbz01fehzcv-3" style="edgeStyle=orthogonalEdgeStyle;rounded=0;orthogonalLoop=1;jettySize=auto;html=1;entryX=0.5;entryY=1;entryDx=0;entryDy=0;startArrow=none;" parent="1" source="hfWW1xW6RFbz01fehzcv-5" target="t9-L5kfbOhESfFCxQeHO-41" edge="1">
          <mxGeometry relative="1" as="geometry" />
        </mxCell>
        <mxCell id="WVtaq3fYPAHRfvgPRUCA-17" value="The solver has finished and the board is solved" style="rounded=1;whiteSpace=wrap;html=1;fillColor=#dae8fc;strokeColor=#6c8ebf;" parent="1" vertex="1">
          <mxGeometry x="575" y="415" width="110" height="43.5" as="geometry" />
        </mxCell>
        <mxCell id="t9-L5kfbOhESfFCxQeHO-4" style="edgeStyle=orthogonalEdgeStyle;rounded=0;orthogonalLoop=1;jettySize=auto;html=1;entryX=0.5;entryY=0;entryDx=0;entryDy=0;" parent="1" source="t9-L5kfbOhESfFCxQeHO-1" target="t9-L5kfbOhESfFCxQeHO-3" edge="1">
          <mxGeometry relative="1" as="geometry" />
        </mxCell>
        <mxCell id="t9-L5kfbOhESfFCxQeHO-1" value="Set the row and column to that empty square indexes" style="rounded=1;whiteSpace=wrap;html=1;fillColor=#ffe6cc;strokeColor=#d79b00;" parent="1" vertex="1">
          <mxGeometry x="110" y="337" width="120" height="60" as="geometry" />
        </mxCell>
        <mxCell id="t9-L5kfbOhESfFCxQeHO-16" style="edgeStyle=orthogonalEdgeStyle;rounded=0;orthogonalLoop=1;jettySize=auto;html=1;entryX=0.5;entryY=0;entryDx=0;entryDy=0;" parent="1" source="t9-L5kfbOhESfFCxQeHO-3" target="t9-L5kfbOhESfFCxQeHO-7" edge="1">
          <mxGeometry relative="1" as="geometry" />
        </mxCell>
        <mxCell id="t9-L5kfbOhESfFCxQeHO-3" value="i=1" style="rounded=1;whiteSpace=wrap;html=1;fillColor=#e1d5e7;strokeColor=#9673a6;" parent="1" vertex="1">
          <mxGeometry x="110" y="440" width="120" height="60" as="geometry" />
        </mxCell>
        <mxCell id="t9-L5kfbOhESfFCxQeHO-15" value="&lt;b&gt;No&lt;/b&gt;" style="edgeStyle=orthogonalEdgeStyle;rounded=0;orthogonalLoop=1;jettySize=auto;html=1;entryX=0;entryY=0.5;entryDx=0;entryDy=0;" parent="1" source="t9-L5kfbOhESfFCxQeHO-7" target="t9-L5kfbOhESfFCxQeHO-11" edge="1">
          <mxGeometry relative="1" as="geometry">
            <Array as="points" />
          </mxGeometry>
        </mxCell>
        <mxCell id="t9-L5kfbOhESfFCxQeHO-18" value="&lt;b&gt;Yes&lt;/b&gt;" style="edgeStyle=orthogonalEdgeStyle;rounded=0;orthogonalLoop=1;jettySize=auto;html=1;entryX=0.5;entryY=0;entryDx=0;entryDy=0;" parent="1" source="t9-L5kfbOhESfFCxQeHO-7" target="t9-L5kfbOhESfFCxQeHO-17" edge="1">
          <mxGeometry relative="1" as="geometry" />
        </mxCell>
        <mxCell id="t9-L5kfbOhESfFCxQeHO-7" value="Is i &amp;lt;= 9?" style="rhombus;whiteSpace=wrap;html=1;fillColor=#e1d5e7;strokeColor=#9673a6;" parent="1" vertex="1">
          <mxGeometry x="130" y="550" width="80" height="80" as="geometry" />
        </mxCell>
        <mxCell id="t9-L5kfbOhESfFCxQeHO-11" value="Return False" style="ellipse;whiteSpace=wrap;html=1;fillColor=#dae8fc;strokeColor=#6c8ebf;" parent="1" vertex="1">
          <mxGeometry x="340" y="561.25" width="126" height="57.5" as="geometry" />
        </mxCell>
        <mxCell id="t9-L5kfbOhESfFCxQeHO-22" value="&lt;b&gt;No&lt;/b&gt;" style="edgeStyle=orthogonalEdgeStyle;rounded=0;orthogonalLoop=1;jettySize=auto;html=1;entryX=1;entryY=0.5;entryDx=0;entryDy=0;" parent="1" source="t9-L5kfbOhESfFCxQeHO-17" target="t9-L5kfbOhESfFCxQeHO-21" edge="1">
          <mxGeometry relative="1" as="geometry" />
        </mxCell>
        <mxCell id="t9-L5kfbOhESfFCxQeHO-26" value="&lt;b&gt;Yes&lt;/b&gt;" style="edgeStyle=orthogonalEdgeStyle;rounded=0;orthogonalLoop=1;jettySize=auto;html=1;entryX=0;entryY=0.5;entryDx=0;entryDy=0;" parent="1" source="t9-L5kfbOhESfFCxQeHO-17" target="t9-L5kfbOhESfFCxQeHO-25" edge="1">
          <mxGeometry relative="1" as="geometry" />
        </mxCell>
        <mxCell id="t9-L5kfbOhESfFCxQeHO-17" value="Is i valid in that row and column?" style="rhombus;whiteSpace=wrap;html=1;fillColor=#fad9d5;strokeColor=#ae4132;" parent="1" vertex="1">
          <mxGeometry x="120" y="690" width="100" height="90" as="geometry" />
        </mxCell>
        <mxCell id="t9-L5kfbOhESfFCxQeHO-24" style="edgeStyle=orthogonalEdgeStyle;rounded=0;orthogonalLoop=1;jettySize=auto;html=1;" parent="1" source="t9-L5kfbOhESfFCxQeHO-21" edge="1">
          <mxGeometry relative="1" as="geometry">
            <mxPoint x="170" y="543" as="targetPoint" />
            <Array as="points">
              <mxPoint x="-25" y="543" />
            </Array>
          </mxGeometry>
        </mxCell>
        <mxCell id="t9-L5kfbOhESfFCxQeHO-21" value="i = i + 1" style="rounded=1;whiteSpace=wrap;html=1;fillColor=#e1d5e7;strokeColor=#9673a6;" parent="1" vertex="1">
          <mxGeometry x="-70" y="712.5" width="90" height="45" as="geometry" />
        </mxCell>
        <mxCell id="t9-L5kfbOhESfFCxQeHO-30" style="edgeStyle=orthogonalEdgeStyle;rounded=0;orthogonalLoop=1;jettySize=auto;html=1;entryX=0;entryY=0.5;entryDx=0;entryDy=0;" parent="1" source="t9-L5kfbOhESfFCxQeHO-25" target="t9-L5kfbOhESfFCxQeHO-27" edge="1">
          <mxGeometry relative="1" as="geometry" />
        </mxCell>
        <mxCell id="t9-L5kfbOhESfFCxQeHO-25" value="Update the board variable to have i in the 2D list with the index [row][column]" style="rounded=1;whiteSpace=wrap;html=1;fillColor=#d5e8d4;strokeColor=#82b366;" parent="1" vertex="1">
          <mxGeometry x="345" y="708.13" width="146" height="53.75" as="geometry" />
        </mxCell>
        <mxCell id="t9-L5kfbOhESfFCxQeHO-29" style="edgeStyle=orthogonalEdgeStyle;rounded=0;orthogonalLoop=1;jettySize=auto;html=1;" parent="1" source="t9-L5kfbOhESfFCxQeHO-27" edge="1">
          <mxGeometry relative="1" as="geometry">
            <mxPoint x="420" y="150" as="targetPoint" />
            <Array as="points">
              <mxPoint x="880" y="735" />
              <mxPoint x="880" y="150" />
            </Array>
          </mxGeometry>
        </mxCell>
        <mxCell id="t9-L5kfbOhESfFCxQeHO-34" style="edgeStyle=orthogonalEdgeStyle;rounded=0;orthogonalLoop=1;jettySize=auto;html=1;" parent="1" source="t9-L5kfbOhESfFCxQeHO-27" target="t9-L5kfbOhESfFCxQeHO-33" edge="1">
          <mxGeometry relative="1" as="geometry" />
        </mxCell>
        <mxCell id="t9-L5kfbOhESfFCxQeHO-35" value="&lt;b&gt;Yes&lt;/b&gt;" style="edgeLabel;html=1;align=center;verticalAlign=middle;resizable=0;points=[];" parent="t9-L5kfbOhESfFCxQeHO-34" vertex="1" connectable="0">
          <mxGeometry x="-0.2552" y="-1" relative="1" as="geometry">
            <mxPoint as="offset" />
          </mxGeometry>
        </mxCell>
        <mxCell id="t9-L5kfbOhESfFCxQeHO-38" value="&lt;b&gt;No&lt;/b&gt;" style="edgeStyle=orthogonalEdgeStyle;rounded=0;orthogonalLoop=1;jettySize=auto;html=1;entryX=0.5;entryY=0;entryDx=0;entryDy=0;" parent="1" source="t9-L5kfbOhESfFCxQeHO-27" target="t9-L5kfbOhESfFCxQeHO-36" edge="1">
          <mxGeometry relative="1" as="geometry" />
        </mxCell>
        <mxCell id="t9-L5kfbOhESfFCxQeHO-27" value="Recursively call this function again. Did it return True?" style="rhombus;whiteSpace=wrap;html=1;fillColor=#fad9d5;strokeColor=#ae4132;" parent="1" vertex="1">
          <mxGeometry x="580" y="682.5" width="110" height="105" as="geometry" />
        </mxCell>
        <mxCell id="t9-L5kfbOhESfFCxQeHO-33" value="Return True" style="rounded=1;whiteSpace=wrap;html=1;fillColor=#bac8d3;strokeColor=#23445d;" parent="1" vertex="1">
          <mxGeometry x="575" y="550" width="120" height="60" as="geometry" />
        </mxCell>
        <mxCell id="t9-L5kfbOhESfFCxQeHO-36" value="&quot;Backtrack&quot; by placing a 0 in the box with the index [row][column]" style="rounded=1;whiteSpace=wrap;html=1;fillColor=#d5e8d4;strokeColor=#82b366;" parent="1" vertex="1">
          <mxGeometry x="567.5" y="840" width="135" height="60" as="geometry" />
        </mxCell>
        <mxCell id="t9-L5kfbOhESfFCxQeHO-41" value="Finish" style="ellipse;whiteSpace=wrap;html=1;fillColor=#dae8fc;strokeColor=#6c8ebf;" parent="1" vertex="1">
          <mxGeometry x="760" y="187.5" width="100" height="55" as="geometry" />
        </mxCell>
        <mxCell id="hfWW1xW6RFbz01fehzcv-6" value="" style="edgeStyle=orthogonalEdgeStyle;rounded=0;orthogonalLoop=1;jettySize=auto;html=1;entryX=0.5;entryY=1;entryDx=0;entryDy=0;endArrow=none;" parent="1" source="WVtaq3fYPAHRfvgPRUCA-17" target="hfWW1xW6RFbz01fehzcv-5" edge="1">
          <mxGeometry relative="1" as="geometry">
            <mxPoint x="685" y="437" as="sourcePoint" />
            <mxPoint x="810" y="243" as="targetPoint" />
          </mxGeometry>
        </mxCell>
        <mxCell id="hfWW1xW6RFbz01fehzcv-5" value="Return True" style="rounded=1;whiteSpace=wrap;html=1;fillColor=#bac8d3;strokeColor=#23445d;" parent="1" vertex="1">
          <mxGeometry x="760" y="352" width="100" height="45" as="geometry" />
        </mxCell>
      </root>
    </mxGraphModel>
  </diagram>
</mxfile>
